<svg width="121" height="125" viewBox="0 0 121 125" fill="none" xmlns="http://www.w3.org/2000/svg">
<path d="M119.661 3.08169C120.036 42.1802 122.094 81.7971 120.237 120.867C120.208 121.385 119.935 121.731 119.618 121.961C119.892 123.185 119.244 124.654 117.603 124.669C98.4457 125.187 79.245 124.64 60.0731 124.539C42.7147 124.467 24.2625 126.181 7.09127 123.401C6.5875 123.329 6.40038 122.825 6.47235 122.379C5.33527 123.07 3.43537 122.581 3.40658 120.78C3.13311 81.8835 3.72322 43.3611 1.43468 4.59378C0.110497 4.39217 0.0961092 2.67846 1.30515 2.34724V2.24643C1.26197 1.42558 2.39903 1.39678 2.64372 2.07362C2.64372 2.11683 2.67251 2.14563 2.67251 2.17443C40.383 -1.58421 79.72 0.676733 117.574 0.575927C118.711 0.575927 119.287 1.36798 119.388 2.21763C119.532 2.44805 119.633 2.72166 119.633 3.06729L119.661 3.08169ZM117.445 120.334C117.215 116.777 117.042 113.191 116.898 109.634C80.6124 111.175 43.6071 111.477 7.46549 107.661C7.4367 112.039 7.42231 116.417 7.33595 120.78C7.33595 121.097 7.29277 121.356 7.19201 121.601C24.3057 118.836 42.7579 120.55 60.0731 120.478C79.2018 120.377 98.3449 119.83 117.445 120.334ZM106.132 106.178C109.658 106.135 113.199 106.048 116.725 105.976C115.603 77.7505 116.135 49.2942 116.221 21.0252C115.948 21.2989 115.603 21.5005 115.128 21.5437C111.241 21.7885 107.341 22.0621 103.44 22.3213C102.375 50.3887 103.858 78.1825 106.132 106.178ZM116.25 18.3755C116.25 13.7528 116.279 9.08687 116.25 4.46418C79.1154 5.04021 40.6133 7.74759 3.5793 4.76659C5.0762 9.31729 6.01177 14.0552 6.64508 18.9083C42.8587 18.2603 78.8708 19.8732 115.142 18.0154C115.617 17.9866 115.991 18.1595 116.265 18.3899L116.25 18.3755ZM21.5565 105.055C49.019 105.731 76.3519 106.495 103.8 106.192C99.6979 78.4993 99.0502 50.4319 100.216 22.4797C73.6748 24.0926 46.4426 24.9711 20.0021 22.8542C21.3407 50.1007 22.2618 77.7937 21.5422 105.055H21.5565ZM7.47987 104.752C11.3805 104.824 15.2667 104.925 19.1673 104.997C17.0514 77.7217 16.5765 49.9279 16.5621 22.5517C13.3236 22.2493 10.1427 21.9325 6.93294 21.5581C8.17077 33.8709 7.43671 46.7165 7.4511 58.5396C7.47989 73.9486 7.55184 89.3432 7.47987 104.752Z" fill="#222221"/>
<path d="M116.898 109.634C117.042 113.191 117.215 116.777 117.445 120.334C98.3451 119.83 79.1876 120.377 60.0732 120.478C42.7581 120.55 24.3058 118.836 7.19214 121.601C7.29289 121.356 7.33608 121.097 7.33608 120.78C7.40805 116.431 7.43683 112.039 7.46562 107.661C43.6073 111.463 80.6125 111.175 116.898 109.634Z" fill="#A27E4E"/>
<path d="M116.725 105.976C113.199 106.048 109.658 106.12 106.132 106.178C103.872 78.1824 102.375 50.3886 103.44 22.3212C107.341 22.0764 111.256 21.8028 115.128 21.5436C115.603 21.5004 115.948 21.2988 116.221 21.0251C116.121 49.2942 115.603 77.7648 116.725 105.976Z" fill="#A27E4E"/>
<path d="M116.25 4.46411C116.279 9.0868 116.25 13.7527 116.25 18.3754C115.977 18.145 115.603 17.9722 115.128 18.001C78.8708 19.8731 42.8443 18.2458 6.63073 18.8938C6.01181 14.0407 5.06185 9.31722 3.56494 4.75213C40.599 7.73312 79.1011 5.02574 116.236 4.44971L116.25 4.46411Z" fill="#A27E4E"/>
<path d="M103.814 106.192C76.3518 106.495 49.0189 105.717 21.5709 105.055C22.2905 77.8081 21.3693 50.1151 20.0308 22.8542C46.4713 24.9711 73.7035 24.0926 100.245 22.4797C99.0789 50.4319 99.7266 78.4993 103.829 106.192H103.814Z" fill="#85603C"/>
<path d="M19.1816 104.997C15.281 104.925 11.3948 104.824 7.49422 104.752C7.56619 89.3432 7.49421 73.9487 7.46543 58.5397C7.43664 46.7165 8.18509 33.8853 6.94727 21.5581C10.157 21.9325 13.3379 22.2493 16.5764 22.5518C16.6052 49.9279 17.0802 77.7217 19.1816 104.997Z" fill="#A27E4E"/>
</svg>
