<svg width="55" height="46" viewBox="0 0 55 46" fill="none" xmlns="http://www.w3.org/2000/svg">
<path d="M20.3915 40.4803L20.2849 42.0801H21.8882C22.6926 42.0801 23.3584 41.8873 23.9391 41.5424C24.4413 41.2442 24.8366 40.8509 25.1154 40.5735C25.1263 40.5627 25.137 40.552 25.1475 40.5416L29.5291 36.3215L39.5363 43.6671L39.6158 43.7254L39.7022 43.7728C40.8916 44.4256 42.298 44.7953 43.6067 44.2057C44.9229 43.6127 45.5894 42.2992 45.8859 40.8918C45.8861 40.8907 45.8863 40.8897 45.8866 40.8887L53.124 7.03878C53.5639 5.26372 53.3155 3.56547 52.1851 2.46716C51.0399 1.35439 49.4124 1.26946 48.0277 1.87484L5.53232 18.1532L5.5215 18.1573L5.51074 18.1616C4.68717 18.4918 3.97847 18.889 3.43979 19.3637C2.91245 19.8283 2.42593 20.4803 2.34262 21.312C2.25312 22.2055 2.66162 22.9444 3.20982 23.4461C3.72477 23.9175 4.39925 24.2274 5.106 24.4293L16.0048 27.8611L16.6657 28.0692L17.2526 27.701L34.0636 17.1521L21.6336 28.2747L21.1779 28.6826L21.1372 29.2928L20.3915 40.4803Z" fill="#189FFF" stroke="black" stroke-width="3"/>
</svg>
