<svg width="56" height="68" viewBox="0 0 56 68" fill="none" xmlns="http://www.w3.org/2000/svg">
<path d="M51.8744 2.85181C51.1548 22.7395 57.1424 45.7522 51.5578 64.7902C51.3275 64.5166 50.982 64.3437 50.5358 64.3437C34.8471 64.3437 19.0289 63.8973 3.35453 64.7902C4.04541 55.3576 3.628 45.925 3.49846 36.478C3.36892 28.6871 1.31067 17.9152 3.08105 10.4267C5.1393 1.64213 16.7403 4.57992 24.5271 4.3351C33.6525 4.06148 42.7778 3.71586 51.8888 2.86621L51.8744 2.85181ZM44.1884 54.3063C45.0088 55.084 46.7072 54.7815 46.6784 53.2838C46.6065 40.4958 46.405 26.5557 43.4687 14.0413C43.8142 13.2493 43.3968 12.126 42.2309 12.0684C32.2131 11.4924 21.5621 11.3195 11.5587 12.4428C11.055 12.5148 10.7383 12.8172 10.6375 13.1629C9.94667 12.9901 9.09746 13.3357 9.12625 14.3005C9.47168 26.9878 10.4936 40.1358 13.0268 52.5782C13.0268 52.6502 13.0988 52.679 13.1276 52.7222C12.6238 52.7654 12.0769 52.7942 11.5875 52.8518C10.911 52.895 10.6375 53.9895 11.4148 54.0903C21.5621 55.66 32.832 55.9336 43.0801 55.4296C43.8285 55.3864 44.2028 54.8391 44.2028 54.2919L44.1884 54.3063Z" fill="#8CC5DF"/>
<path d="M43.7277 53.2839C43.7277 53.2839 43.7565 53.3847 43.7709 53.4135C43.5694 53.2695 43.3535 53.1399 43.08 53.1111C33.8251 52.1894 23.7786 51.9158 14.4085 52.6646C14.4373 52.5638 14.5093 52.5206 14.5093 52.391C13.9911 39.7758 12.7245 27.0598 11.645 14.4878C21.5908 15.6111 32.1843 15.4383 42.1589 14.891C41.5687 27.5062 43.0081 40.6975 43.7277 53.2839ZM33.9259 44.0385C38.5318 42.1232 40.9642 34.8363 36.9053 31.1929C35.9841 30.372 34.7175 31.3945 35.2357 32.4889C36.675 35.4987 36.5599 39.675 33.2494 41.4751C29.2481 43.6641 24.9444 39.531 24.3687 35.7292C24.2967 35.1819 23.4044 35.2107 23.3036 35.7292C22.2097 41.4319 28.6579 46.2562 33.9259 44.0385ZM33.9403 25.4181C36.5023 25.4181 36.5023 21.4434 33.9403 21.4434C31.3783 21.4434 31.3783 25.4181 33.9403 25.4181ZM24.8149 27.1894C27.5209 27.1894 27.5209 22.9843 24.8149 22.9843C22.109 22.9843 22.1234 27.1894 24.8149 27.1894Z" fill="#F1CE30"/>
<path d="M54.969 38.1629C55.6886 47.9988 56.8545 57.1721 53.8031 66.7056C53.3857 67.944 51.7449 67.8 51.2843 66.8784C51.0828 67.0224 50.8381 67.1232 50.5358 67.1232C34.5448 67.1232 18.4243 67.6272 2.43333 66.648C1.46897 66.576 1.31064 65.4239 1.95834 64.9775C1.92956 64.9487 1.91517 64.9486 1.91517 64.9054C-0.373372 44.6289 0.403865 23.69 0.000851619 3.28391C-0.027935 2.46305 0.677333 1.81501 1.46897 1.78621C18.3811 1.5558 35.2501 0.49013 52.1335 0.000499083C53.3713 -0.0283028 53.7311 1.19578 53.2993 2.04543C54.019 14.0702 54.0766 26.1094 54.969 38.1485V38.1629ZM51.5577 64.7902C57.1567 45.7522 51.1547 22.7396 51.8744 2.85188C42.7778 3.70153 33.638 4.04716 24.5127 4.32078C16.7259 4.56559 5.13926 1.6278 3.06663 10.4124C1.29625 17.9008 3.36889 28.6727 3.48403 36.4636C3.61357 45.925 4.03098 55.3576 3.3401 64.7758C19.0144 63.883 34.8327 64.3294 50.5214 64.3294C50.9676 64.3294 51.313 64.5022 51.5433 64.7758L51.5577 64.7902Z" fill="#222221"/>
<path d="M46.6784 53.2839C46.7071 54.7816 45.0087 55.0697 44.1883 54.3064C44.1883 54.8537 43.8141 55.4009 43.0656 55.4441C32.8176 55.9481 21.5476 55.6745 11.4003 54.1048C10.6231 54.004 10.8966 52.9095 11.573 52.8663C12.0768 52.8231 12.6238 52.7943 13.1131 52.7367C13.0844 52.6935 13.0124 52.6647 13.0124 52.5927C10.4791 40.1503 9.45724 27.0167 9.1118 14.3151C9.08301 13.3502 9.93222 12.9902 10.6231 13.1774C10.7239 12.8318 11.0405 12.5293 11.5443 12.4573C21.5476 11.3341 32.1843 11.5069 42.2164 12.0829C43.3823 12.1261 43.8141 13.2494 43.4543 14.0558C46.3905 26.5702 46.592 40.5103 46.664 53.2983L46.6784 53.2839ZM43.7709 53.4136C43.7709 53.4136 43.7277 53.3415 43.7277 53.2839C43.0081 40.6975 41.5687 27.5063 42.1589 14.8911C32.1843 15.4383 21.5908 15.6111 11.645 14.4879C12.7101 27.0599 13.9767 39.7759 14.5093 52.3911C14.5093 52.5207 14.4373 52.5639 14.4085 52.6647C23.7786 51.9159 33.8395 52.1895 43.08 53.1111C43.3535 53.1399 43.5838 53.2551 43.7709 53.4136Z" fill="#222221"/>
<path d="M36.9054 31.193C40.9643 34.822 38.5174 42.1233 33.926 44.0386C28.658 46.2564 22.2098 41.4321 23.3037 35.7293C23.4045 35.2109 24.2968 35.1821 24.3688 35.7293C24.9445 39.5311 29.2481 43.6642 33.2495 41.4753C36.56 39.6896 36.6751 35.4989 35.2358 32.4891C34.7176 31.3946 35.9842 30.3722 36.9054 31.193Z" fill="#222221"/>
<path d="M33.9403 21.4434C36.5023 21.4434 36.5023 25.418 33.9403 25.418C31.3783 25.418 31.407 21.4434 33.9403 21.4434Z" fill="#222221"/>
<path d="M24.8151 22.9844C27.521 22.9844 27.521 27.1894 24.8151 27.1894C22.1091 27.1894 22.1235 22.9844 24.8151 22.9844Z" fill="#222221"/>
</svg>
