<svg width="42" height="69" viewBox="0 0 42 69" fill="none" xmlns="http://www.w3.org/2000/svg">
<path d="M35.4298 17.8252C35.804 17.5228 36.1782 17.206 36.5525 16.8748C36.5237 17.926 36.351 18.9341 36.0775 19.9134C35.804 19.7693 35.5017 19.6109 35.2283 19.4093C34.7533 19.0637 34.2064 19.8125 34.6094 20.2014C34.9548 20.547 35.329 20.8206 35.732 21.0942C34.4366 24.6513 31.6299 27.517 27.7725 28.1795V28.0499C27.7725 27.4738 27.0961 27.373 26.8082 27.7763C26.6643 27.9491 26.5635 28.1507 26.4627 28.3235C26.2612 28.3523 26.0597 28.3523 25.8726 28.3523C25.2249 28.3523 25.0234 29.418 25.6999 29.5188H25.8294C25.4264 30.3828 25.1098 31.3045 24.7787 32.2117C23.7568 31.9669 22.7349 31.6213 21.7129 31.1893C21.0652 30.9445 20.691 31.9669 21.238 32.2837C22.2023 32.831 23.2243 33.2774 24.275 33.6518C23.6992 35.3223 23.0803 37.0072 22.7349 38.7498C22.6629 39.1242 22.8069 39.4986 23.0803 39.7434C20.6479 39.8874 18.3305 40.161 16.6321 40.1898C15.639 40.1898 14.3148 40.089 12.8467 40.017C12.9474 39.873 12.9906 39.6714 12.9762 39.4266C12.4293 36.0712 11.4649 32.1541 10.7884 28.2083C11.7096 27.8627 12.6308 27.5602 13.6527 27.3586C14.6027 27.157 14.3724 25.6593 13.4224 25.6593C12.4293 25.6881 11.4505 25.8609 10.4862 26.1346C10.3854 25.2849 10.2415 24.4352 10.1839 23.6144C11.58 23.4128 12.9906 23.2688 14.4155 23.0384C15.0344 22.9664 14.8905 21.9151 14.2716 21.9439C12.8754 21.9727 11.5081 22.0447 10.1119 22.1167C10.0112 19.4237 10.1839 16.846 10.9755 14.5274C12.2997 10.8264 15.5958 8.88225 18.935 9.32868C18.4169 10.524 17.9131 11.748 17.4957 12.9145C17.2222 13.6922 18.3881 14.1386 18.8199 13.4617C19.5396 12.3241 20.2161 11.1 20.8781 9.84711C21.5546 10.1495 22.2023 10.596 22.85 11.0856C22.3463 11.9352 21.9001 12.7993 21.6554 13.7498C21.4539 14.441 22.519 14.945 22.8788 14.2538C23.253 13.5625 23.6273 12.9145 24.0447 12.2665C26.7506 15.4779 26.6067 19.7261 25.2393 23.5424C25.0954 23.6864 25.009 23.9168 25.0378 24.1184C25.009 24.1472 25.009 24.1904 24.9946 24.2192C24.5197 25.4145 26.29 25.9617 26.9377 24.9969C31.2125 24.6225 34.926 19.4669 32.7094 15.5355C32.839 15.5067 32.9541 15.4923 33.0549 15.3915C33.9185 14.5274 35.1131 14.5706 35.9335 15.1899C35.4586 15.7371 34.9692 16.3131 34.4942 16.8604C33.9473 17.5372 34.7677 18.3581 35.4442 17.8108L35.4298 17.8252Z" fill="#6AA742"/>
<path d="M40.05 10.8263C41 9.93349 42.3818 11.3304 41.4894 12.2664C40.4387 13.3609 39.3304 14.4266 38.1789 15.449C38.2797 15.7515 38.3516 16.0251 38.3516 16.3419C38.769 17.8396 38.7546 19.2797 38.4524 20.6766C39.1289 20.7774 39.8198 20.7774 40.5106 20.6478C41.7485 20.3742 42.0075 22.2175 40.7553 22.3471C39.8053 22.4479 38.8842 22.3471 38.0206 22.1167C36.4229 26.2209 32.1049 29.3891 27.6286 29.6051C27.4847 30.6564 27.2112 31.6645 26.8802 32.6725C29.6869 33.0902 32.4791 32.903 35.4586 32.0245C36.5956 31.7077 37.0562 33.4214 35.9623 33.767C32.8966 34.7895 29.5717 34.9335 26.4052 34.271C25.8582 36.0568 25.3544 37.8857 24.5916 39.5706C24.5628 39.6138 24.5196 39.6426 24.4909 39.7002C28.1756 39.5706 31.8746 39.873 33.9905 41.9467C35.9048 43.8333 36.0487 46.4974 34.12 48.3695C33.8033 48.672 33.4435 48.672 33.1269 48.5424C34.3215 57.7733 31.2125 68.6748 20.0002 68.4732C9.30591 68.2716 2.44028 57.7445 6.15376 48.0671C5.36213 47.9375 4.58489 47.8223 3.82205 47.6639C3.75008 47.9663 3.4766 48.2111 3.07359 48.1103C0.612329 47.4623 0.10857 44.7981 1.46154 42.7388C3.23192 40.0026 7.70823 39.8298 11.6376 40.0026C11.6088 39.9306 11.5657 39.9306 11.5369 39.8586C10.6157 37.4248 9.39227 33.5366 8.57185 29.3315C7.6075 29.9076 6.7007 30.5556 5.8371 31.3765C4.84396 32.3413 3.40465 30.8724 4.32582 29.8644C5.41971 28.6979 6.74388 27.7474 8.15443 27.0562C8.0105 26.0337 7.85217 25.0112 7.75142 23.9744C6.88782 24.104 6.00983 24.2192 5.14623 24.32C3.9228 24.464 3.87962 22.4479 5.14623 22.3759C5.96665 22.3471 6.81585 22.3327 7.63627 22.2751C7.46355 18.7901 7.76582 15.4778 8.93168 12.8713C7.01737 13.6921 4.80078 14.3114 2.75693 13.4473C1.04413 12.6697 -0.280044 10.956 0.0510028 9.01183C0.353263 7.19731 1.9653 5.90123 3.6781 5.55561C4.39777 5.4116 5.14623 5.426 5.8659 5.55561C5.62121 5.08038 5.46289 4.56195 5.41971 4.01471C5.31895 2.2722 6.36966 0.731299 8.02489 0.212865C9.83845 -0.363171 11.9255 0.256071 13.1201 1.75377C14.4155 3.36667 14.5882 5.61321 13.9118 7.52853C13.811 7.80215 13.6383 7.94616 13.408 8.03256C12.8898 8.17657 12.2421 7.80215 12.4437 7.13971C13.1921 4.82116 12.1702 1.29293 9.10439 1.81137C6.74389 2.21459 6.9598 4.99397 8.80215 5.91563C9.20516 6.11724 9.20514 6.53487 9.03242 6.86609C9.47862 7.11091 9.89603 7.41333 10.299 7.68694C11.2202 8.37819 10.443 9.74628 9.37787 9.25665C7.66506 8.46459 3.73568 6.17485 2.44028 8.95423C1.7494 10.3655 3.2895 11.4744 4.52733 11.748C5.92348 12.0216 7.43478 11.5464 8.80215 11.244C9.14759 11.172 9.42105 11.388 9.62255 11.6472C10.5149 10.1783 11.7815 9.01183 13.5087 8.30618C14.0125 8.07577 14.5595 7.90296 15.1208 7.78775C16.7904 7.41333 18.3017 7.44213 19.6691 7.74455C20.4463 6.10284 21.3099 4.53314 22.2023 3.09305C22.6485 2.373 23.9439 2.84823 23.6417 3.71229C23.0947 5.25319 22.4038 6.85169 21.6266 8.42139C22.4038 8.76701 23.0947 9.27104 23.7136 9.81828C24.678 8.623 25.8294 7.60054 27.0673 6.75088C28.0316 6.10284 29.0104 7.71574 27.9884 8.34939C26.765 9.09823 25.7719 10.0199 24.9514 11.0424C27.5422 14.153 28.5642 18.8333 27.5566 23.0383C30.4209 21.9727 31.8027 18.4588 31.1406 15.4778C31.0398 15.0602 31.486 14.6282 31.889 14.729C31.9178 14.6858 31.889 14.657 31.9178 14.6282C32.9397 12.9145 35.4298 12.9289 36.9987 14.0089C37.963 12.9433 38.9849 11.892 40.0356 10.8983L40.05 10.8263ZM36.5381 16.8747C36.1638 17.1916 35.7896 17.5228 35.4154 17.8252C34.7389 18.3724 33.9185 17.5516 34.4654 16.8747C34.9404 16.3275 35.4298 15.7515 35.9048 15.2042C35.0843 14.585 33.8897 14.5274 33.0261 15.4058C32.9253 15.5066 32.7958 15.5354 32.6807 15.5498C34.8972 19.4813 31.1837 24.6368 26.9089 25.0112C26.2612 25.9761 24.4909 25.4289 24.9658 24.2336C24.9946 24.2048 24.9946 24.1616 25.009 24.1328C24.9802 23.9312 25.0522 23.7152 25.2105 23.5568C26.5779 19.7549 26.7218 15.4922 24.0159 12.2808C23.5985 12.9289 23.2242 13.5769 22.85 14.2682C22.5046 14.9594 21.4395 14.4698 21.6266 13.7641C21.8713 12.8137 22.3175 11.9496 22.8212 11.1C22.1735 10.5959 21.5258 10.1495 20.8493 9.86148C20.1729 11.1 19.5108 12.324 18.7911 13.4761C18.3737 14.153 17.1934 13.7065 17.4669 12.9289C17.8843 11.7624 18.3881 10.5383 18.9062 9.34305C15.567 8.89662 12.2709 10.8407 10.9467 14.5418C10.1551 16.8603 9.9824 19.4381 10.0832 22.1311C11.4793 22.0591 12.8467 21.9871 14.2428 21.9583C14.8617 21.9295 15.02 22.9807 14.3867 23.0527C12.9762 23.2831 11.5513 23.4272 10.1551 23.6288C10.1983 24.4496 10.3566 25.2993 10.4574 26.1489C11.4217 25.8753 12.4005 25.7025 13.3936 25.6737C14.3436 25.6737 14.5595 27.1714 13.6239 27.373C12.602 27.5746 11.6808 27.877 10.7596 28.2227C11.4361 32.1829 12.4005 36.0856 12.9474 39.441C12.9762 39.6858 12.9186 39.8874 12.8179 40.0314C14.286 40.1034 15.6102 40.2042 16.6033 40.2042C18.2873 40.1754 20.6047 39.9018 23.0515 39.7578C22.7781 39.513 22.6341 39.1386 22.7061 38.7641C23.0515 37.0216 23.6704 35.3367 24.2462 33.6662C23.1955 33.2918 22.1879 32.8454 21.2092 32.2981C20.6622 31.9813 21.0365 30.9588 21.6842 31.2036C22.7061 31.6213 23.728 31.9813 24.7499 32.2261C25.0666 31.3333 25.3976 30.4116 25.8007 29.5331H25.6711C24.9946 29.4323 25.1961 28.3667 25.8438 28.3667C26.0453 28.3667 26.2469 28.3667 26.434 28.3379C26.5347 28.1651 26.6355 27.9634 26.7794 27.7906C27.0817 27.3874 27.7437 27.4882 27.7437 28.0642V28.1939C31.6012 27.517 34.4078 24.6656 35.7033 21.1086C35.3002 20.835 34.926 20.5614 34.5806 20.2157C34.1776 19.8125 34.7245 19.0781 35.1995 19.4237C35.473 19.6253 35.7752 19.7693 36.0487 19.9277C36.3222 18.9629 36.4949 17.9404 36.5237 16.8891L36.5381 16.8747ZM30.1474 45.9646C30.4497 45.1725 31.5148 44.8701 32.1913 45.2878C31.2269 43.0988 29.6725 42.1483 27.5135 42.5228C26.7218 42.5228 25.9014 42.5228 25.0954 42.5516C23.0803 42.5804 21.0653 42.5948 19.0502 42.6236C17.0063 42.6524 14.9913 42.6668 12.9762 42.6956C12.1846 42.6956 1.23126 42.4652 3.24632 46.3246C3.2895 46.2958 3.34707 46.2526 3.41904 46.2238C12.0694 45.3309 21.3963 45.7198 30.133 45.9502L30.1474 45.9646ZM22.5622 65.0314C30.6512 63.2601 30.2482 55.0084 30.1042 48.3839C23.0659 48.96 15.3079 49.176 8.09687 48.3119C6.11059 57.1397 12.4724 67.2492 22.5765 65.0314H22.5622Z" fill="#222221"/>
<path d="M32.1913 45.2877C31.5148 44.8701 30.4497 45.1581 30.1474 45.9645C21.4107 45.7341 12.0838 45.3453 3.43341 46.2382C3.36144 46.267 3.30388 46.3102 3.2607 46.339C1.24563 42.4795 12.1846 42.7099 12.9906 42.7099C15.0056 42.6811 17.0207 42.6667 19.0646 42.6379C21.0796 42.6091 23.0947 42.5947 25.1098 42.5659C25.9014 42.5371 26.7218 42.5371 27.5278 42.5371C29.6868 42.1627 31.2269 43.1132 32.2057 45.3021L32.1913 45.2877Z" fill="#E7BC3D"/>
<path d="M30.1043 48.384C30.2483 55.0084 30.6513 63.2602 22.5623 65.0315C12.4581 67.2492 6.0963 57.1398 8.08258 48.312C15.2936 49.1761 23.0516 48.9601 30.09 48.384H30.1043Z" fill="#E7BC3D"/>
<path d="M13.4081 7.98928L13.5089 8.2629C11.7961 8.95414 10.5294 10.135 9.62267 11.6039C9.42116 11.3591 9.1477 11.1287 8.80226 11.2007C7.4349 11.5031 5.9236 11.9783 4.52744 11.7047C3.28962 11.4311 1.73512 10.3366 2.44039 8.91094C3.73579 6.11716 7.66518 8.40691 9.37799 9.21336C10.4431 9.71739 11.2203 8.34931 10.2992 7.64366C9.89615 7.37005 9.47873 7.06762 9.03254 6.82281C9.20526 6.50599 9.20528 6.07396 8.80226 5.87235C6.95992 4.95069 6.74401 2.17131 9.10451 1.76809C12.1703 1.24965 13.1778 4.77788 12.4438 7.09643C12.2423 7.77327 12.89 8.14769 13.4081 7.98928Z" fill="#C63D46"/>
</svg>
